<svg id="Layer_1" data-name="Layer 1" xmlns="http://www.w3.org/2000/svg" viewBox="0 0 355 200"><defs><style>.cls-1{fill:#d3468a;}</style></defs><path class="cls-1" d="M219.36,153.45c-.47.8-.89,1.46-1.26,2.15l-6.3,12c-1.69,3.22-3.39,6.45-5.1,9.66-1.11,2.08-2.19,4.18-3.42,6.18a4.89,4.89,0,0,1-7.23.77c-2.79-2.85-5.53-5.75-8.27-8.64-1.75-1.85-3.47-3.72-5.21-5.58-2.94-3.14-5.89-6.26-8.82-9.4-1.65-1.77-3.26-3.57-5-5.48l-.51,1.44q-2.74,8-5.5,16.07-2.5,7.32-5,14.65a23.09,23.09,0,0,1-1.39,3.58,4.63,4.63,0,0,1-4.85,2.43,4.71,4.71,0,0,1-4-2.82c-2.14-4.47-4.24-9-6.36-13.44-1-2.13-2.07-4.24-3.08-6.37q-3.27-6.79-6.51-13.6c-1-2.12-2-4.25-3.06-6.49-1,1.18-1.88,2.24-2.75,3.34-1.88,2.36-3.74,4.75-5.6,7.12-2.57,3.27-5.12,6.55-7.7,9.8-2.43,3.07-6.06,3-8.27.29a33.15,33.15,0,0,1-2.44-3.9L93.09,153q-2.28-3.78-4.57-7.57a4.3,4.3,0,0,0-.32-.39c-2.38,2.6-4.73,5.16-7.07,7.73s-4.86,5.37-7.29,8l-7.14,7.91c-1.92,2.12-3.86,4.22-5.76,6.35a5.2,5.2,0,0,1-5.27,1,4.92,4.92,0,0,1-3.1-4.45c.06-2.27,0-4.55,0-6.82,0-2.87.12-5.74.19-8.61.06-2.59.13-5.17.19-7.75.07-2.8.13-5.61.2-8.42.06-2.51.11-5,.19-7.55,0-1.59.11-3.18.2-4.77a1,1,0,0,0-.59-1c-3.26-1.94-6.49-3.92-9.73-5.88l-13.2-8c-4.21-2.55-8.43-5.08-12.64-7.64-4.45-2.7-8.88-5.42-13.34-8.11a5,5,0,0,1-2-5.63A5.25,5.25,0,0,1,6.79,88c10.85,0,21.7-.12,32.55-.17,4.29,0,8.58,0,12.87,0h1.21c-.62-1.53-1.21-3-1.79-4.4C49.51,78.2,47.4,73,45.26,67.77c-2-4.95-4.12-9.88-6.14-14.84a14.84,14.84,0,0,1-1.22-3.81,4.55,4.55,0,0,1,2.17-4.34,5,5,0,0,1,5.21-.29c3.85,1.87,7.66,3.82,11.49,5.72q8.41,4.18,16.83,8.34,8.13,4,16.26,8c1.68.83,3.39,1.61,5.21,2.47,0-.45,0-.78,0-1.12q.09-6.37.19-12.74c0-2.43.13-4.85.19-7.27.07-2.58.13-5.16.2-7.74.06-2.39.13-4.78.19-7.17q.09-3.93.19-7.84.09-3.49.19-7a41.55,41.55,0,0,1,.22-4.47,4.84,4.84,0,0,1,3.25-4,4.26,4.26,0,0,1,4.89.93,47,47,0,0,1,3.94,5.51q5.31,8,10.57,16l13.77,20.89c.28.43.52.89.88,1.49,1.44-4.17,2.81-8.15,4.19-12.13q3.47-10.07,6.94-20.14c1.64-4.76,3.29-9.52,5-14.26.57-1.57.87-3.29,2.27-4.48a4.83,4.83,0,0,1,4.85-1,4.57,4.57,0,0,1,3.22,3.32c1.41,6,2.71,12.1,4.08,18.14.92,4,1.92,8,2.83,12,1.13,5,2.21,9.9,3.31,14.85.28,1.25.57,2.49.89,3.89.55-.72,1.09-1.37,1.57-2Q179.75,43,186.63,33.3c4-5.58,7.94-11.14,11.91-16.72,2.69-3.78,5.33-7.6,8.1-11.33a5,5,0,0,1,7.11-.68c1.56,1.28,1.75,3.05,2,4.82s.58,3.73.87,5.59.58,3.72.86,5.58.55,3.67.83,5.5.61,3.72.9,5.58.6,3.78.89,5.67.55,3.8.84,5.69.58,3.6.85,5.4.58,3.85.88,5.77.58,3.6.87,5.39c.1.67.21,1.34.34,2.15,1.06-1.28,2-2.46,3-3.65l4.65-5.72q2.19-2.73,4.39-5.44l4.66-5.73,4.58-5.65q2.3-2.84,4.61-5.64c1.52-1.86,3.05-3.7,4.56-5.56s3.13-3.88,4.69-5.81c2.38-2.94,4.73-5.9,7.13-8.82,2.17-2.62,4.31-5.27,6.62-7.75,1.32-1.41,3.17-1.28,4.88-.66a4.22,4.22,0,0,1,3,4.06c0,2-.33,4-.52,6s-.37,4-.6,6-.5,4-.74,6c-.15,1.32-.26,2.64-.41,4-.24,2.22-.51,4.44-.75,6.67-.21,2-.38,4-.59,5.93s-.5,4.06-.74,6.1c-.15,1.35-.26,2.7-.42,4-.24,2.13-.51,4.25-.74,6.38-.22,2-.39,4-.6,5.93-.16,1.47-.38,2.93-.55,4.4a8.4,8.4,0,0,0,0,.9c1.24-.7,2.38-1.33,3.51-2l8.4-4.83,9.78-5.65c2.83-1.62,5.67-3.22,8.5-4.85l15.08-8.69c2.29-1.31,4.59-2.59,6.88-3.88a4.93,4.93,0,0,1,7.28,2.88,5.57,5.57,0,0,1-1.53,5.46c-1.83,2.09-3.54,4.28-5.31,6.41-1.42,1.7-2.87,3.37-4.28,5.08-1.71,2.06-3.4,4.14-5.1,6.21-1.37,1.65-2.77,3.28-4.14,4.94-2.37,2.87-4.71,5.76-7.09,8.62-1.76,2.11-3.55,4.19-5.33,6.29l-1.27,1.57c1.54.4,3,.79,4.52,1.16l26.68,6.68c6.28,1.57,12.58,3.09,18.86,4.68,3,.76,4.56,2.29,4.46,5.21-.09,2.63-1.42,4.11-4.37,5l-10.1,2.89-17.83,5.19-18.46,5.38-1.67.51q1.77,4.81,3.55,9.65,3.75,10.22,7.52,20.43l6.93,18.84a6.79,6.79,0,0,1,.48,4.23,5,5,0,0,1-7.79,2.64c-4-3-8-6.07-12-9.12q-6.94-5.28-13.86-10.59c-2.7-2.07-5.37-4.16-8.12-6.3-1,1.46-2,2.87-2.92,4.3-1.81,2.75-3.59,5.52-5.4,8.27-3.89,5.89-7.8,11.76-11.68,17.65-3.25,4.92-6.51,9.84-9.72,14.78a5,5,0,0,1-8.63-.48c-2.48-4.93-4.79-10-7.18-14.95l-4.23-8.84q-3.25-6.79-6.51-13.59C221.09,157.12,220.26,155.36,219.36,153.45Z"/></svg>