<svg id="Layer_1" data-name="Layer 1" xmlns="http://www.w3.org/2000/svg" viewBox="0 0 200 40"><defs><style>.cls-1{fill:#231f20;stroke:#231f20;stroke-miterlimit:10;stroke-width:0.25px;}</style></defs><path class="cls-1" d="M24.35,24.73a4.42,4.42,0,0,1-1.71,1.51,5.5,5.5,0,0,1-2.52.55,5.5,5.5,0,0,1-2.52-.55,4.42,4.42,0,0,1-1.71-1.51,4.17,4.17,0,0,1-.67-2.09V21.25a4.12,4.12,0,0,1,.65-2.11,4.3,4.3,0,0,1,1.72-1.51,6,6,0,0,1,5.06,0,4.3,4.3,0,0,1,1.72,1.51A4.12,4.12,0,0,1,25,21.25c0,.12,0,.35,0,.68s0,.59,0,.71A4.17,4.17,0,0,1,24.35,24.73Zm-3.07-1.11a1.53,1.53,0,0,0,.5-1.07c0-.24,0-.45,0-.62s0-.37,0-.61a1.53,1.53,0,0,0-.5-1.07,1.92,1.92,0,0,0-2.32,0,1.57,1.57,0,0,0-.5,1.07c0,.12,0,.33,0,.61s0,.5,0,.62a1.57,1.57,0,0,0,.5,1.07,2,2,0,0,0,2.32,0ZM44,26.47a.44.44,0,0,1-.34.14H41.43a.48.48,0,0,1-.48-.48V20H37.71v6.09a.46.46,0,0,1-.15.34.44.44,0,0,1-.34.14H35a.48.48,0,0,1-.48-.48V20H31v6.09a.49.49,0,0,1-.14.34.46.46,0,0,1-.35.14H28.26a.47.47,0,0,1-.35-.14.49.49,0,0,1-.14-.34V20H26.53a.44.44,0,0,1-.34-.14.46.46,0,0,1-.15-.34V17.74a.51.51,0,0,1,.49-.49h1.24v-.48a3.17,3.17,0,0,1,1.1-2.55,4.2,4.2,0,0,1,2.82-.93H33.4a.47.47,0,0,1,.35.15.48.48,0,0,1,.14.34V15.6a.49.49,0,0,1-.14.34.46.46,0,0,1-.35.14H31.79a.69.69,0,0,0-.78.78v.39h3.46v-.48a3.16,3.16,0,0,1,1.09-2.55,4.25,4.25,0,0,1,2.83-.93H43.7a.51.51,0,0,1,.49.49V15.6a.46.46,0,0,1-.15.34.44.44,0,0,1-.34.14H38.48a.68.68,0,0,0-.77.78v.39h6a.51.51,0,0,1,.49.49v8.39A.46.46,0,0,1,44,26.47Zm5.59-2.86a1.68,1.68,0,0,0,1.14.39,2,2,0,0,0,.89-.16,1.54,1.54,0,0,0,.54-.48.89.89,0,0,1,.22-.27.49.49,0,0,1,.3-.09h2.36a.48.48,0,0,1,.34.13.45.45,0,0,1,.14.32,2.79,2.79,0,0,1-.45,1.3,4.11,4.11,0,0,1-1.52,1.41,5.51,5.51,0,0,1-2.82.63,5.65,5.65,0,0,1-2.43-.51,4.29,4.29,0,0,1-1.75-1.45,3.84,3.84,0,0,1-.69-2.18l0-.72,0-.72A3.84,3.84,0,0,1,46.59,19a4.29,4.29,0,0,1,1.75-1.45,6.27,6.27,0,0,1,5.22.1,4,4,0,0,1,1.52,1.38,3.14,3.14,0,0,1,.48,1.32.41.41,0,0,1-.13.34.52.52,0,0,1-.35.14H52.72a.49.49,0,0,1-.3-.09.89.89,0,0,1-.22-.27,1.45,1.45,0,0,0-.54-.48,2,2,0,0,0-.89-.17,1.68,1.68,0,0,0-1.14.4,1.49,1.49,0,0,0-.49,1c0,.12,0,.33,0,.63s0,.51,0,.63A1.51,1.51,0,0,0,49.63,23.61ZM60.4,24a2,2,0,0,0,1.14.32,2.81,2.81,0,0,0,.83-.1,1.83,1.83,0,0,0,.55-.31,2.26,2.26,0,0,1,.29-.21.8.8,0,0,1,.31,0h2.34a.38.38,0,0,1,.29.11.37.37,0,0,1,.1.28,1.92,1.92,0,0,1-.54,1,4.58,4.58,0,0,1-1.6,1.17,5.89,5.89,0,0,1-2.57.51A4.83,4.83,0,0,1,58,25.51a4.86,4.86,0,0,1-1.27-3.58,5.44,5.44,0,0,1,.57-2.52,4.1,4.1,0,0,1,1.66-1.72,5.3,5.3,0,0,1,2.63-.62,5,5,0,0,1,2.76.71,4.2,4.2,0,0,1,1.59,1.84A5.62,5.62,0,0,1,66.4,22v.5a.47.47,0,0,1-.15.35.48.48,0,0,1-.34.14h-6A1.22,1.22,0,0,0,60.4,24ZM63.16,21a1.65,1.65,0,0,0-.5-1,1.51,1.51,0,0,0-1.12-.43,1.55,1.55,0,0,0-1.13.43,1.69,1.69,0,0,0-.49,1Zm14.9-3.71a.51.51,0,0,1,.49.49v1.82a.46.46,0,0,1-.15.34.44.44,0,0,1-.34.14H75.85v6.09a.49.49,0,0,1-.14.34.47.47,0,0,1-.35.14H73.09a.45.45,0,0,1-.34-.14.49.49,0,0,1-.14-.34V20H71.37A.46.46,0,0,1,71,19.9a.49.49,0,0,1-.14-.34V17.74A.48.48,0,0,1,71,17.4a.47.47,0,0,1,.35-.15h1.24v-.48a3.14,3.14,0,0,1,1.1-2.55,4.2,4.2,0,0,1,2.82-.93h1.71a.43.43,0,0,1,.34.15.45.45,0,0,1,.15.34V15.6a.46.46,0,0,1-.15.34.42.42,0,0,1-.34.14H76.62a.69.69,0,0,0-.77.78v.39Zm10.5,7.48a4.42,4.42,0,0,1-1.71,1.51,5.56,5.56,0,0,1-2.52.55,5.5,5.5,0,0,1-2.52-.55,4.28,4.28,0,0,1-1.71-1.51,4.17,4.17,0,0,1-.67-2.09l0-.71,0-.68a4,4,0,0,1,.65-2.11,4.3,4.3,0,0,1,1.72-1.51,6,6,0,0,1,5.06,0,4.27,4.27,0,0,1,1.71,1.51,4,4,0,0,1,.65,2.11c0,.12,0,.35,0,.68s0,.59,0,.71A4.16,4.16,0,0,1,88.56,24.73Zm-3.07-1.11A1.52,1.52,0,0,0,86,22.55a4.75,4.75,0,0,0,0-1.23,1.52,1.52,0,0,0-.49-1.07,1.7,1.7,0,0,0-1.16-.39,1.68,1.68,0,0,0-1.16.39,1.53,1.53,0,0,0-.5,1.07c0,.12,0,.33,0,.61s0,.5,0,.62a1.53,1.53,0,0,0,.5,1.07,1.67,1.67,0,0,0,1.16.38A1.69,1.69,0,0,0,85.49,23.62ZM97.43,17.4a.44.44,0,0,1,.14.34v1.82a.48.48,0,0,1-.48.48H95.45a1.5,1.5,0,0,0-1.66,1.66v4.43a.48.48,0,0,1-.48.48H91a.44.44,0,0,1-.34-.14.46.46,0,0,1-.15-.34V17.74a.51.51,0,0,1,.49-.49h2.09a.46.46,0,0,1,.34.15.44.44,0,0,1,.14.34v.41a3.34,3.34,0,0,1,2.4-.9h1.08A.46.46,0,0,1,97.43,17.4ZM108,20.49q0-1-1-1a1.43,1.43,0,0,0-1,.33.77.77,0,0,1-.29.18,1.73,1.73,0,0,1-.36,0h-2.28a.44.44,0,0,1-.3-.1.34.34,0,0,1-.1-.29,2.05,2.05,0,0,1,.62-1.16,4.3,4.3,0,0,1,1.54-1,5.51,5.51,0,0,1,2.14-.41,4.66,4.66,0,0,1,3.22,1,3.36,3.36,0,0,1,1.07,2.62v5.46a.46.46,0,0,1-.15.34.44.44,0,0,1-.34.14h-2.27a.48.48,0,0,1-.48-.48v-.51a3.15,3.15,0,0,1-1.12.88,4.08,4.08,0,0,1-1.64.29,3.32,3.32,0,0,1-2.36-.79A2.64,2.64,0,0,1,102,24a2.45,2.45,0,0,1,.94-2,6.24,6.24,0,0,1,2.93-1.12Zm-1.66,2.4a1.74,1.74,0,0,0-.79.31.69.69,0,0,0-.29.55c0,.41.29.61.87.61a1.87,1.87,0,0,0,1.33-.5,1.61,1.61,0,0,0,.54-1.22Zm16.79-8.57a.51.51,0,0,1,.49-.49h2.27a.46.46,0,0,1,.34.15.44.44,0,0,1,.14.34V26.13a.48.48,0,0,1-.48.48h-2.18a.44.44,0,0,1-.34-.14.46.46,0,0,1-.15-.34v-.42a3.67,3.67,0,0,1-.55.56,2.07,2.07,0,0,1-.73.37,4.18,4.18,0,0,1-1.22.15,4,4,0,0,1-2.83-1,4.23,4.23,0,0,1-1.2-3.08l0-.74,0-.72a4.24,4.24,0,0,1,1.19-3.08,3.94,3.94,0,0,1,2.84-1.06,3,3,0,0,1,1.51.33,2.73,2.73,0,0,1,.9.75Zm-2.78,9.25a1.5,1.5,0,0,0,1.18.43,1.47,1.47,0,0,0,1.13-.41,1.85,1.85,0,0,0,.47-1,3.08,3.08,0,0,0,0-.63,3.08,3.08,0,0,0,0-.63,1.72,1.72,0,0,0-.46-1,1.48,1.48,0,0,0-1.14-.43,1.5,1.5,0,0,0-1.18.44,1.83,1.83,0,0,0-.44,1.13c0,.12,0,.29,0,.5s0,.39,0,.51A1.86,1.86,0,0,0,120.35,23.57Zm13.15-3.08c0-.66-.35-1-1-1a1.41,1.41,0,0,0-1,.33.85.85,0,0,1-.29.18,1.86,1.86,0,0,1-.36,0h-2.29a.44.44,0,0,1-.3-.1.33.33,0,0,1-.09-.29,2,2,0,0,1,.62-1.16,4.21,4.21,0,0,1,1.54-1,5.48,5.48,0,0,1,2.14-.41,4.62,4.62,0,0,1,3.21,1,3.36,3.36,0,0,1,1.07,2.62v5.46a.49.49,0,0,1-.14.34.45.45,0,0,1-.34.14H134a.44.44,0,0,1-.34-.14.46.46,0,0,1-.15-.34v-.51a3,3,0,0,1-1.11.88,4.12,4.12,0,0,1-1.64.29,3.34,3.34,0,0,1-2.37-.79,2.66,2.66,0,0,1-.85-2.05,2.47,2.47,0,0,1,.93-2,6.29,6.29,0,0,1,2.94-1.12Zm-1.65,2.4a1.84,1.84,0,0,0-.8.31.68.68,0,0,0-.28.55c0,.41.28.61.86.61a1.85,1.85,0,0,0,1.33-.5,1.61,1.61,0,0,0,.54-1.22ZM142.63,30h-2.36a.41.41,0,0,1-.43-.43.22.22,0,0,1,0-.12l1.36-3.23-3.63-8.44a.43.43,0,0,1,0-.12.4.4,0,0,1,.13-.31.42.42,0,0,1,.3-.13h2.36c.24,0,.41.15.52.44l2,4.68,2-4.68c.11-.29.28-.44.52-.44h2.38a.42.42,0,0,1,.3.13.4.4,0,0,1,.13.31.43.43,0,0,1,0,.12l-5,11.79C143,29.89,142.87,30,142.63,30ZM200,0H0V40H200Z"/></svg>