<svg id="Layer_1" data-name="Layer 1" xmlns="http://www.w3.org/2000/svg" viewBox="0 0 200 40"><defs><style>.cls-1{fill:#231f20;stroke:#231f20;stroke-miterlimit:10;stroke-width:0.25px;}</style></defs><path class="cls-1" d="M19.07,23.61a1.64,1.64,0,0,0,1.14.39,2,2,0,0,0,.88-.16,1.38,1.38,0,0,0,.54-.48.9.9,0,0,1,.23-.27.46.46,0,0,1,.29-.09h2.36a.47.47,0,0,1,.34.13.42.42,0,0,1,.15.32,2.79,2.79,0,0,1-.45,1.3A4.11,4.11,0,0,1,23,26.16a5.56,5.56,0,0,1-2.82.63,5.7,5.7,0,0,1-2.44-.51A4.26,4.26,0,0,1,16,24.83a3.93,3.93,0,0,1-.7-2.18l0-.72,0-.72A3.92,3.92,0,0,1,16,19a4.26,4.26,0,0,1,1.74-1.45,5.56,5.56,0,0,1,2.44-.52,5.54,5.54,0,0,1,2.79.62,3.94,3.94,0,0,1,1.51,1.38A3.33,3.33,0,0,1,25,20.39a.39.39,0,0,1-.14.34.52.52,0,0,1-.35.14H22.15a.46.46,0,0,1-.29-.09.9.9,0,0,1-.23-.27,1.31,1.31,0,0,0-.54-.48,1.94,1.94,0,0,0-.88-.17,1.65,1.65,0,0,0-1.14.4,1.5,1.5,0,0,0-.5,1c0,.12,0,.33,0,.63s0,.51,0,.63A1.52,1.52,0,0,0,19.07,23.61ZM35,24.73a4.42,4.42,0,0,1-1.71,1.51,6,6,0,0,1-5,0,4.42,4.42,0,0,1-1.71-1.51,4.06,4.06,0,0,1-.66-2.09l0-.71,0-.68a4.11,4.11,0,0,1,.64-2.11,4.37,4.37,0,0,1,1.72-1.51,6,6,0,0,1,5.06,0A4.3,4.3,0,0,1,35,19.14a4.12,4.12,0,0,1,.65,2.11c0,.12,0,.35,0,.68s0,.59,0,.71A4.17,4.17,0,0,1,35,24.73Zm-3.07-1.11a1.53,1.53,0,0,0,.5-1.07c0-.24,0-.45,0-.62s0-.37,0-.61a1.53,1.53,0,0,0-.5-1.07,1.68,1.68,0,0,0-1.16-.39,1.7,1.7,0,0,0-1.16.39,1.52,1.52,0,0,0-.49,1.07,4.74,4.74,0,0,0,0,.61,4.83,4.83,0,0,0,0,.62,1.52,1.52,0,0,0,.49,1.07,1.69,1.69,0,0,0,1.16.38A1.67,1.67,0,0,0,31.88,23.62Zm13.31-5.93,1.34,4.08,1.33-4.08a.61.61,0,0,1,.61-.44H50.7a.46.46,0,0,1,.31.13.43.43,0,0,1,.12.31v.14l-2.87,8.33a.57.57,0,0,1-.59.45h-2a.62.62,0,0,1-.6-.45l-1.27-3.78-1.28,3.78a.62.62,0,0,1-.6.45h-2a.57.57,0,0,1-.59-.45l-2.86-8.33,0-.14a.43.43,0,0,1,.12-.31.46.46,0,0,1,.31-.13H39a.6.6,0,0,1,.61.44L41,21.77l1.33-4.08a.61.61,0,0,1,.61-.44h1.69A.6.6,0,0,1,45.19,17.69Zm16.11,7a4.28,4.28,0,0,1-1.71,1.51,5.5,5.5,0,0,1-2.52.55,5.56,5.56,0,0,1-2.52-.55,4.42,4.42,0,0,1-1.71-1.51,4.16,4.16,0,0,1-.66-2.09l0-.71,0-.68a4,4,0,0,1,.65-2.11,4.24,4.24,0,0,1,1.72-1.51,6,6,0,0,1,5.05,0,4.3,4.3,0,0,1,1.72,1.51A4,4,0,0,1,62,21.25c0,.12,0,.35,0,.68s0,.59,0,.71A4.17,4.17,0,0,1,61.3,24.73Zm-3.06-1.11a1.56,1.56,0,0,0,.49-1.07c0-.24,0-.45,0-.62s0-.37,0-.61a1.56,1.56,0,0,0-.49-1.07,1.72,1.72,0,0,0-1.17-.39,1.7,1.7,0,0,0-1.16.39,1.52,1.52,0,0,0-.49,1.07c0,.12,0,.33,0,.61s0,.5,0,.62a1.52,1.52,0,0,0,.49,1.07,1.69,1.69,0,0,0,1.16.38A1.72,1.72,0,0,0,58.24,23.62Zm12.3-6.22a.48.48,0,0,1,.14.34v1.82a.49.49,0,0,1-.14.34.45.45,0,0,1-.34.14H68.56a1.67,1.67,0,0,0-1.23.43,1.63,1.63,0,0,0-.43,1.23v4.43a.49.49,0,0,1-.14.34.45.45,0,0,1-.34.14H64.15a.44.44,0,0,1-.34-.14.46.46,0,0,1-.15-.34V17.74a.51.51,0,0,1,.49-.49h2.09a.46.46,0,0,1,.34.15.48.48,0,0,1,.14.34v.41a3.32,3.32,0,0,1,2.4-.9H70.2A.46.46,0,0,1,70.54,17.4Zm7,.16a1,1,0,0,1,.7-.31h2.65a.42.42,0,0,1,.3.13.4.4,0,0,1,.13.31.29.29,0,0,1,0,.16.71.71,0,0,1-.16.2l-3.2,3.56,3.78,4.23a.56.56,0,0,1,.18.34.42.42,0,0,1-.13.31.41.41,0,0,1-.3.12H78.76a.93.93,0,0,1-.73-.3l-2.86-3.22v3a.46.46,0,0,1-.15.34.45.45,0,0,1-.34.14H72.41a.44.44,0,0,1-.34-.14.46.46,0,0,1-.15-.34V14.32a.51.51,0,0,1,.49-.49h2.27A.46.46,0,0,1,75,14a.45.45,0,0,1,.15.34v5.83ZM86,16.12a.45.45,0,0,1-.34.14H83.41a.44.44,0,0,1-.34-.14.46.46,0,0,1-.15-.34V14a.51.51,0,0,1,.49-.49h2.27a.46.46,0,0,1,.34.15.48.48,0,0,1,.14.34v1.82A.49.49,0,0,1,86,16.12Zm0,10.35a.45.45,0,0,1-.34.14H83.41a.44.44,0,0,1-.34-.14.46.46,0,0,1-.15-.34V17.74a.51.51,0,0,1,.49-.49h2.27a.46.46,0,0,1,.34.15.48.48,0,0,1,.14.34v8.39A.49.49,0,0,1,86,26.47Zm11.68,0a.45.45,0,0,1-.34.14H95.09a.44.44,0,0,1-.34-.14.46.46,0,0,1-.15-.34V21.57a1.89,1.89,0,0,0-.38-1.25A1.48,1.48,0,0,0,93,19.86a1.44,1.44,0,0,0-1.16.45,1.86,1.86,0,0,0-.39,1.26v4.56a.49.49,0,0,1-.14.34.46.46,0,0,1-.35.14H88.74a.46.46,0,0,1-.35-.14.49.49,0,0,1-.14-.34V17.74a.48.48,0,0,1,.14-.34.47.47,0,0,1,.35-.15h2.17a.47.47,0,0,1,.35.15.48.48,0,0,1,.14.34v.41a3,3,0,0,1,2.54-1.08,3.93,3.93,0,0,1,2.86,1,4.11,4.11,0,0,1,1,3.08v4.95A.45.45,0,0,1,97.7,26.47ZM106,25.35a4.9,4.9,0,0,1-.55.56,2.13,2.13,0,0,1-.74.37,4.14,4.14,0,0,1-1.22.15,4,4,0,0,1-2.83-1,4.1,4.1,0,0,1-1.2-3l0-.65,0-.63a4.11,4.11,0,0,1,1.2-3,4,4,0,0,1,2.83-1,3,3,0,0,1,2.6,1.08v-.41a.44.44,0,0,1,.14-.34.46.46,0,0,1,.34-.15h2.09a.51.51,0,0,1,.49.49V26.5a3.6,3.6,0,0,1-1.35,3,5.66,5.66,0,0,1-3.57,1.05,5.87,5.87,0,0,1-2.73-.53,3.16,3.16,0,0,1-1.88-2.63.43.43,0,0,1,.14-.35.52.52,0,0,1,.35-.14h2.34a.59.59,0,0,1,.56.36,1.08,1.08,0,0,0,.42.43,1.71,1.71,0,0,0,.84.16,2.17,2.17,0,0,0,1.23-.32,1.06,1.06,0,0,0,.5-.94Zm-2.86-2.1a1.61,1.61,0,0,0,1.16.39,1.56,1.56,0,0,0,1.1-.37,1.59,1.59,0,0,0,.51-1,3.85,3.85,0,0,0,0-.57,3.69,3.69,0,0,0,0-.56,1.49,1.49,0,0,0-.49-.94,1.61,1.61,0,0,0-2.74,1.06c0,.12,0,.27,0,.44s0,.33,0,.45A1.65,1.65,0,0,0,103.16,23.25ZM200,0H0V40H200Z"/></svg>