<svg id="Layer_1" data-name="Layer 1" xmlns="http://www.w3.org/2000/svg" viewBox="0 0 200 40"><defs><style>.cls-1{fill:#231f20;stroke:#231f20;stroke-miterlimit:10;stroke-width:0.25px;}</style></defs><path class="cls-1" d="M24.35,24.73a4.42,4.42,0,0,1-1.71,1.51,5.5,5.5,0,0,1-2.52.55,5.5,5.5,0,0,1-2.52-.55,4.42,4.42,0,0,1-1.71-1.51,4.17,4.17,0,0,1-.67-2.09V21.25a4.12,4.12,0,0,1,.65-2.11,4.3,4.3,0,0,1,1.72-1.51,6,6,0,0,1,5.06,0,4.3,4.3,0,0,1,1.72,1.51A4.12,4.12,0,0,1,25,21.25c0,.12,0,.35,0,.68s0,.59,0,.71A4.17,4.17,0,0,1,24.35,24.73Zm-3.07-1.11a1.53,1.53,0,0,0,.5-1.07c0-.24,0-.45,0-.62s0-.37,0-.61a1.53,1.53,0,0,0-.5-1.07,1.92,1.92,0,0,0-2.32,0,1.57,1.57,0,0,0-.5,1.07c0,.12,0,.33,0,.61s0,.5,0,.62a1.57,1.57,0,0,0,.5,1.07,2,2,0,0,0,2.32,0ZM44,26.47a.44.44,0,0,1-.34.14H41.43a.48.48,0,0,1-.48-.48V20H37.71v6.09a.46.46,0,0,1-.15.34.44.44,0,0,1-.34.14H35a.48.48,0,0,1-.48-.48V20H31v6.09a.49.49,0,0,1-.14.34.46.46,0,0,1-.35.14H28.26a.47.47,0,0,1-.35-.14.49.49,0,0,1-.14-.34V20H26.53a.44.44,0,0,1-.34-.14.46.46,0,0,1-.15-.34V17.74a.51.51,0,0,1,.49-.49h1.24v-.48a3.17,3.17,0,0,1,1.1-2.55,4.2,4.2,0,0,1,2.82-.93H33.4a.47.47,0,0,1,.35.15.48.48,0,0,1,.14.34V15.6a.49.49,0,0,1-.14.34.46.46,0,0,1-.35.14H31.79a.69.69,0,0,0-.78.78v.39h3.46v-.48a3.16,3.16,0,0,1,1.09-2.55,4.25,4.25,0,0,1,2.83-.93H43.7a.51.51,0,0,1,.49.49V15.6a.46.46,0,0,1-.15.34.44.44,0,0,1-.34.14H38.48a.68.68,0,0,0-.77.78v.39h6a.51.51,0,0,1,.49.49v8.39A.46.46,0,0,1,44,26.47Zm5.59-2.86a1.68,1.68,0,0,0,1.14.39,2,2,0,0,0,.89-.16,1.54,1.54,0,0,0,.54-.48.89.89,0,0,1,.22-.27.49.49,0,0,1,.3-.09h2.36a.48.48,0,0,1,.34.13.45.45,0,0,1,.14.32,2.79,2.79,0,0,1-.45,1.3,4.11,4.11,0,0,1-1.52,1.41,5.51,5.51,0,0,1-2.82.63,5.65,5.65,0,0,1-2.43-.51,4.29,4.29,0,0,1-1.75-1.45,3.84,3.84,0,0,1-.69-2.18l0-.72,0-.72A3.84,3.84,0,0,1,46.59,19a4.29,4.29,0,0,1,1.75-1.45,6.27,6.27,0,0,1,5.22.1,4,4,0,0,1,1.52,1.38,3.14,3.14,0,0,1,.48,1.32.41.41,0,0,1-.13.34.52.52,0,0,1-.35.14H52.72a.49.49,0,0,1-.3-.09.89.89,0,0,1-.22-.27,1.45,1.45,0,0,0-.54-.48,2,2,0,0,0-.89-.17,1.68,1.68,0,0,0-1.14.4,1.49,1.49,0,0,0-.49,1c0,.12,0,.33,0,.63s0,.51,0,.63A1.51,1.51,0,0,0,49.63,23.61ZM60.4,24a2,2,0,0,0,1.14.32,2.81,2.81,0,0,0,.83-.1,1.83,1.83,0,0,0,.55-.31,2.26,2.26,0,0,1,.29-.21.8.8,0,0,1,.31,0h2.34a.38.38,0,0,1,.29.11.37.37,0,0,1,.1.28,1.92,1.92,0,0,1-.54,1,4.58,4.58,0,0,1-1.6,1.17,5.89,5.89,0,0,1-2.57.51A4.83,4.83,0,0,1,58,25.51a4.86,4.86,0,0,1-1.27-3.58,5.44,5.44,0,0,1,.57-2.52,4.1,4.1,0,0,1,1.66-1.72,5.3,5.3,0,0,1,2.63-.62,5,5,0,0,1,2.76.71,4.2,4.2,0,0,1,1.59,1.84A5.62,5.62,0,0,1,66.4,22v.5a.47.47,0,0,1-.15.35.48.48,0,0,1-.34.14h-6A1.22,1.22,0,0,0,60.4,24ZM63.16,21a1.65,1.65,0,0,0-.5-1,1.51,1.51,0,0,0-1.12-.43,1.55,1.55,0,0,0-1.13.43,1.69,1.69,0,0,0-.49,1Zm12,2.65a1.64,1.64,0,0,0,1.14.39,2,2,0,0,0,.88-.16,1.38,1.38,0,0,0,.54-.48,1.08,1.08,0,0,1,.23-.27.49.49,0,0,1,.3-.09h2.35a.49.49,0,0,1,.35.13.45.45,0,0,1,.14.32,2.79,2.79,0,0,1-.45,1.3,4.11,4.11,0,0,1-1.52,1.41,5.51,5.51,0,0,1-2.82.63,5.7,5.7,0,0,1-2.44-.51,4.33,4.33,0,0,1-1.74-1.45,3.93,3.93,0,0,1-.7-2.18V21.21a3.92,3.92,0,0,1,.7-2.17,4.33,4.33,0,0,1,1.74-1.45,6.29,6.29,0,0,1,5.23.1,3.94,3.94,0,0,1,1.51,1.38,3.18,3.18,0,0,1,.49,1.32.39.39,0,0,1-.14.34.5.5,0,0,1-.35.14H78.3a.49.49,0,0,1-.3-.09,1.08,1.08,0,0,1-.23-.27,1.31,1.31,0,0,0-.54-.48,1.94,1.94,0,0,0-.88-.17,1.65,1.65,0,0,0-1.14.4,1.54,1.54,0,0,0-.5,1c0,.12,0,.33,0,.63s0,.51,0,.63A1.56,1.56,0,0,0,75.21,23.61Zm16.21,1.12a4.42,4.42,0,0,1-1.71,1.51,6,6,0,0,1-5,0A4.42,4.42,0,0,1,83,24.73a4.17,4.17,0,0,1-.67-2.09l0-.71,0-.68a4.12,4.12,0,0,1,.65-2.11,4.3,4.3,0,0,1,1.72-1.51,6,6,0,0,1,5.06,0,4.3,4.3,0,0,1,1.72,1.51,4.11,4.11,0,0,1,.64,2.11,5.59,5.59,0,0,1,0,.68,6,6,0,0,1,0,.71A4.06,4.06,0,0,1,91.42,24.73Zm-3.07-1.11a1.52,1.52,0,0,0,.49-1.07,4.75,4.75,0,0,0,0-1.23,1.52,1.52,0,0,0-.49-1.07,1.7,1.7,0,0,0-1.16-.39,1.68,1.68,0,0,0-1.16.39,1.53,1.53,0,0,0-.5,1.07c0,.12,0,.33,0,.61s0,.5,0,.62a1.53,1.53,0,0,0,.5,1.07,1.67,1.67,0,0,0,1.16.38A1.69,1.69,0,0,0,88.35,23.62Zm5.84-1.68a2.72,2.72,0,0,1-.74-2A2.31,2.31,0,0,1,94,18.5a3.69,3.69,0,0,1,1.5-1,5.76,5.76,0,0,1,2.18-.39,6.28,6.28,0,0,1,2.19.37,4.4,4.4,0,0,1,1.56.95,2,2,0,0,1,.63,1.2.43.43,0,0,1-.14.35.52.52,0,0,1-.35.14H99.41a.87.87,0,0,1-.47-.2,1.89,1.89,0,0,0-.5-.28,2.54,2.54,0,0,0-.78-.1,1.75,1.75,0,0,0-.7.13.4.4,0,0,0-.27.38.44.44,0,0,0,.1.32.67.67,0,0,0,.36.16c.17,0,.48.09.91.15l1.12.18a4.06,4.06,0,0,1,2.35,1.07,2.73,2.73,0,0,1,.78,1.95,2.29,2.29,0,0,1-.55,1.49,3.72,3.72,0,0,1-1.59,1.07,6.88,6.88,0,0,1-2.43.39,6.65,6.65,0,0,1-2.35-.38,3.93,3.93,0,0,1-1.53-1,2.11,2.11,0,0,1-.59-1.21.38.38,0,0,1,.14-.34.49.49,0,0,1,.35-.15H96a.46.46,0,0,1,.21.05l.19.15a1.75,1.75,0,0,0,.48.32,2.34,2.34,0,0,0,.87.11,2.61,2.61,0,0,0,.94-.15c.26-.1.39-.24.39-.4a.38.38,0,0,0-.28-.39,7.45,7.45,0,0,0-1.2-.24L96.3,23A3.78,3.78,0,0,1,94.19,21.94ZM109,23.82h1.44a.46.46,0,0,1,.34.15.44.44,0,0,1,.14.34v1.82a.48.48,0,0,1-.48.48H108.7a3.82,3.82,0,0,1-2.73-.95,3.38,3.38,0,0,1-1-2.59V20h-1.33a.48.48,0,0,1-.48-.48V17.74a.44.44,0,0,1,.14-.34.46.46,0,0,1,.34-.15H105V14.32a.51.51,0,0,1,.49-.49h2.27a.46.46,0,0,1,.34.15.44.44,0,0,1,.14.34v2.93h2a.46.46,0,0,1,.34.15.44.44,0,0,1,.14.34v1.82a.48.48,0,0,1-.48.48h-2V23C108.19,23.54,108.45,23.82,109,23.82ZM200,0H0V40H200Z"/></svg>